# Blender 4.0.2
# www.blender.org
mtllib coin.mtl
o Cylinder
v 0.000000 -0.171609 -1.000000
v 0.000000 0.171609 -1.000000
v 0.195090 -0.171609 -0.980785
v 0.195090 0.171609 -0.980785
v 0.382683 -0.171609 -0.923880
v 0.382683 0.171609 -0.923880
v 0.555570 -0.171609 -0.831470
v 0.555570 0.171609 -0.831470
v 0.707107 -0.171609 -0.707107
v 0.707107 0.171609 -0.707107
v 0.831470 -0.171609 -0.555570
v 0.831470 0.171609 -0.555570
v 0.923880 -0.171609 -0.382683
v 0.923880 0.171609 -0.382683
v 0.980785 -0.171609 -0.195090
v 0.980785 0.171609 -0.195090
v 1.000000 -0.171609 0.000000
v 1.000000 0.171609 0.000000
v 0.980785 -0.171609 0.195090
v 0.980785 0.171609 0.195090
v 0.923880 -0.171609 0.382683
v 0.923880 0.171609 0.382683
v 0.831470 -0.171609 0.555570
v 0.831470 0.171609 0.555570
v 0.707107 -0.171609 0.707107
v 0.707107 0.171609 0.707107
v 0.555570 -0.171609 0.831470
v 0.555570 0.171609 0.831470
v 0.382683 -0.171609 0.923880
v 0.382683 0.171609 0.923880
v 0.195090 -0.171609 0.980785
v 0.195090 0.171609 0.980785
v 0.000000 -0.171609 1.000000
v 0.000000 0.171609 1.000000
v -0.195090 -0.171609 0.980785
v -0.195090 0.171609 0.980785
v -0.382683 -0.171609 0.923880
v -0.382683 0.171609 0.923880
v -0.555570 -0.171609 0.831470
v -0.555570 0.171609 0.831470
v -0.707107 -0.171609 0.707107
v -0.707107 0.171609 0.707107
v -0.831470 -0.171609 0.555570
v -0.831470 0.171609 0.555570
v -0.923880 -0.171609 0.382683
v -0.923880 0.171609 0.382683
v -0.980785 -0.171609 0.195090
v -0.980785 0.171609 0.195090
v -1.000000 -0.171609 0.000000
v -1.000000 0.171609 0.000000
v -0.980785 -0.171609 -0.195090
v -0.980785 0.171609 -0.195090
v -0.923880 -0.171609 -0.382683
v -0.923880 0.171609 -0.382683
v -0.831470 -0.171609 -0.555570
v -0.831470 0.171609 -0.555570
v -0.707107 -0.171609 -0.707107
v -0.707107 0.171609 -0.707107
v -0.555570 -0.171609 -0.831470
v -0.555570 0.171609 -0.831470
v -0.382683 -0.171609 -0.923880
v -0.382683 0.171609 -0.923880
v -0.195090 -0.171609 -0.980785
v -0.195090 0.171609 -0.980785
vn 0.0980 -0.0000 -0.9952
vn 0.2903 -0.0000 -0.9569
vn 0.4714 -0.0000 -0.8819
vn 0.6344 -0.0000 -0.7730
vn 0.7730 -0.0000 -0.6344
vn 0.8819 -0.0000 -0.4714
vn 0.9569 -0.0000 -0.2903
vn 0.9952 -0.0000 -0.0980
vn 0.9952 -0.0000 0.0980
vn 0.9569 -0.0000 0.2903
vn 0.8819 -0.0000 0.4714
vn 0.7730 -0.0000 0.6344
vn 0.6344 -0.0000 0.7730
vn 0.4714 -0.0000 0.8819
vn 0.2903 -0.0000 0.9569
vn 0.0980 -0.0000 0.9952
vn -0.0980 -0.0000 0.9952
vn -0.2903 -0.0000 0.9569
vn -0.4714 -0.0000 0.8819
vn -0.6344 -0.0000 0.7730
vn -0.7730 -0.0000 0.6344
vn -0.8819 -0.0000 0.4714
vn -0.9569 -0.0000 0.2903
vn -0.9952 -0.0000 0.0980
vn -0.9952 -0.0000 -0.0980
vn -0.9569 -0.0000 -0.2903
vn -0.8819 -0.0000 -0.4714
vn -0.7730 -0.0000 -0.6344
vn -0.6344 -0.0000 -0.7730
vn -0.4714 -0.0000 -0.8819
vn -0.0000 1.0000 -0.0000
vn -0.2903 -0.0000 -0.9569
vn -0.0980 -0.0000 -0.9952
vn -0.0000 -1.0000 -0.0000
vt 0.953191 0.958402
vt 0.872556 0.958402
vt 0.872556 0.950651
vt 0.953191 0.950651
vt 0.872556 0.943349
vt 0.953191 0.943349
vt 0.872556 0.936777
vt 0.953191 0.936777
vt 0.990874 0.932500
vt 0.936678 0.932500
vt 0.936678 0.928744
vt 0.990874 0.928744
vt 0.936678 0.924327
vt 0.990874 0.924327
vt 0.936678 0.919419
vt 0.990874 0.919419
vt 0.936678 0.914209
vt 0.990874 0.914209
vt 0.936678 0.908897
vt 0.990874 0.908897
vt 0.936678 0.903687
vt 0.990874 0.903687
vt 0.936678 0.898779
vt 0.990874 0.898779
vt 0.936678 0.894362
vt 0.990874 0.894362
vt 0.936678 0.890606
vt 0.990874 0.890606
vt 0.926455 0.853363
vt 0.926455 0.929467
vt 0.921181 0.929467
vt 0.921181 0.853363
vt 0.914978 0.929467
vt 0.914978 0.853363
vt 0.908087 0.929467
vt 0.908087 0.853363
vt 0.900770 0.929467
vt 0.900770 0.853363
vt 0.893311 0.929467
vt 0.893311 0.853363
vt 0.885995 0.929467
vt 0.885995 0.853363
vt 0.879103 0.929467
vt 0.879103 0.853363
vt 0.872901 0.929467
vt 0.872901 0.853363
vt 0.996811 0.937761
vt 0.996811 0.996357
vt 0.992035 0.996357
vt 0.992035 0.937761
vt 0.986729 0.996357
vt 0.986729 0.937761
vt 0.981096 0.996357
vt 0.981096 0.937761
vt 0.975353 0.996357
vt 0.975353 0.937761
vt 0.969720 0.996357
vt 0.969720 0.937761
vt 0.964414 0.996357
vt 0.964414 0.937761
vt 0.959638 0.996357
vt 0.959638 0.937761
vt 0.953191 0.993520
vt 0.872556 0.993520
vt 0.872556 0.987931
vt 0.953191 0.987931
vt 0.872556 0.981360
vt 0.953191 0.981360
vt 0.872556 0.974058
vt 0.953191 0.974058
vt 0.992944 0.450451
vt 0.992944 0.547429
vt 0.974025 0.642543
vt 0.936913 0.732139
vt 0.883035 0.812772
vt 0.814462 0.881346
vt 0.733828 0.935223
vt 0.644233 0.972335
vt 0.549119 0.991254
vt 0.452141 0.991254
vt 0.357027 0.972335
vt 0.267432 0.935223
vt 0.186798 0.881346
vt 0.118225 0.812772
vt 0.064347 0.732138
vt 0.027235 0.642543
vt 0.008316 0.547429
vt 0.008316 0.450451
vt 0.027235 0.355337
vt 0.064347 0.265742
vt 0.118225 0.185108
vt 0.186798 0.116535
vt 0.267432 0.062657
vt 0.357027 0.025545
vt 0.452141 0.006626
vt 0.549119 0.006626
vt 0.644233 0.025545
vt 0.733828 0.062657
vt 0.814462 0.116535
vt 0.883035 0.185108
vt 0.936913 0.265742
vt 0.974025 0.355337
vt 0.872556 0.966306
vt 0.953191 0.966306
vt 0.989846 0.545846
vt 0.970906 0.641065
vt 0.933754 0.730758
vt 0.879817 0.811480
vt 0.811169 0.880128
vt 0.730447 0.934065
vt 0.640753 0.971217
vt 0.545535 0.990157
vt 0.448452 0.990157
vt 0.353234 0.971217
vt 0.263540 0.934065
vt 0.182818 0.880128
vt 0.114170 0.811480
vt 0.060233 0.730758
vt 0.023081 0.641064
vt 0.004141 0.545846
vt 0.004141 0.448763
vt 0.023081 0.353545
vt 0.060233 0.263851
vt 0.114170 0.183129
vt 0.182818 0.114481
vt 0.263540 0.060544
vt 0.353234 0.023392
vt 0.448452 0.004452
vt 0.545535 0.004452
vt 0.640753 0.023392
vt 0.730447 0.060544
vt 0.811169 0.114481
vt 0.879817 0.183130
vt 0.933754 0.263852
vt 0.970906 0.353545
vt 0.989846 0.448763
s 0
f 1/1/1 2/2/1 4/3/1 3/4/1
f 3/4/2 4/3/2 6/5/2 5/6/2
f 5/6/3 6/5/3 8/7/3 7/8/3
f 7/9/4 8/10/4 10/11/4 9/12/4
f 9/12/5 10/11/5 12/13/5 11/14/5
f 11/14/6 12/13/6 14/15/6 13/16/6
f 13/16/7 14/15/7 16/17/7 15/18/7
f 15/18/8 16/17/8 18/19/8 17/20/8
f 17/20/9 18/19/9 20/21/9 19/22/9
f 19/22/10 20/21/10 22/23/10 21/24/10
f 21/24/11 22/23/11 24/25/11 23/26/11
f 23/26/12 24/25/12 26/27/12 25/28/12
f 25/29/13 26/30/13 28/31/13 27/32/13
f 27/32/14 28/31/14 30/33/14 29/34/14
f 29/34/15 30/33/15 32/35/15 31/36/15
f 31/36/16 32/35/16 34/37/16 33/38/16
f 33/38/17 34/37/17 36/39/17 35/40/17
f 35/40/18 36/39/18 38/41/18 37/42/18
f 37/42/19 38/41/19 40/43/19 39/44/19
f 39/44/20 40/43/20 42/45/20 41/46/20
f 41/47/21 42/48/21 44/49/21 43/50/21
f 43/50/22 44/49/22 46/51/22 45/52/22
f 45/52/23 46/51/23 48/53/23 47/54/23
f 47/54/24 48/53/24 50/55/24 49/56/24
f 49/56/25 50/55/25 52/57/25 51/58/25
f 51/58/26 52/57/26 54/59/26 53/60/26
f 53/60/27 54/59/27 56/61/27 55/62/27
f 55/63/28 56/64/28 58/65/28 57/66/28
f 57/66/29 58/65/29 60/67/29 59/68/29
f 59/68/30 60/67/30 62/69/30 61/70/30
f 4/71/31 2/72/31 64/73/31 62/74/31 60/75/31 58/76/31 56/77/31 54/78/31 52/79/31 50/80/31 48/81/31 46/82/31 44/83/31 42/84/31 40/85/31 38/86/31 36/87/31 34/88/31 32/89/31 30/90/31 28/91/31 26/92/31 24/93/31 22/94/31 20/95/31 18/96/31 16/97/31 14/98/31 12/99/31 10/100/31 8/101/31 6/102/31
f 61/70/32 62/69/32 64/103/32 63/104/32
f 63/104/33 64/103/33 2/2/33 1/1/33
f 1/105/34 3/106/34 5/107/34 7/108/34 9/109/34 11/110/34 13/111/34 15/112/34 17/113/34 19/114/34 21/115/34 23/116/34 25/117/34 27/118/34 29/119/34 31/120/34 33/121/34 35/122/34 37/123/34 39/124/34 41/125/34 43/126/34 45/127/34 47/128/34 49/129/34 51/130/34 53/131/34 55/132/34 57/133/34 59/134/34 61/135/34 63/136/34
